<svg width="14" height="14" viewBox="0 0 14 14" fill="none" xmlns="http://www.w3.org/2000/svg">
<path fill-rule="evenodd" clip-rule="evenodd" d="M0 6.66667C0 2.98477 2.98477 0 6.66667 0C8.43478 0 10.1305 0.702379 11.3807 1.95262C12.631 3.20286 13.3333 4.89856 13.3333 6.66667C13.3333 10.3486 10.3486 13.3333 6.66667 13.3333C2.98477 13.3333 0 10.3486 0 6.66667ZM6.66667 7.33333H9.33333C9.70152 7.33333 10 7.03486 10 6.66667C10 6.29848 9.70152 6 9.33333 6H7.33333V4C7.33333 3.63181 7.03486 3.33333 6.66667 3.33333C6.29848 3.33333 6 3.63181 6 4V6.66667C6 7.03486 6.29848 7.33333 6.66667 7.33333Z" fill="#8BACD9"/>
</svg>
